<svg xmlns="http://www.w3.org/2000/svg" xmlns:xlink="http://www.w3.org/1999/xlink" width="150" viewBox="0 0 150 30" height="30" version="1.0"><defs><g id="c"><path d="M 19.484375 -8.503906 C 18.90625 -6.714844 17.609375 -5.535156 16.082031 -5.535156 C 15.878906 -5.535156 15.679688 -5.5625 15.476562 -5.589844 L 19.484375 -17.4375 C 19.683594 -18.042969 19.828125 -18.792969 19.828125 -19.367188 C 19.828125 -23.027344 16.6875 -25.015625 13.660156 -25.015625 C 12.625 -25.015625 11.703125 -24.671875 10.75 -24.007812 C 10.636719 -24.5 9.625 -25.074219 8.558594 -25.074219 C 7.609375 -25.074219 6.628906 -24.613281 6.167969 -23.257812 L -1.039062 -2.679688 C -1.183594 -2.304688 -1.238281 -1.988281 -1.238281 -1.671875 C -1.238281 -0.257812 0 0.632812 1.269531 0.632812 C 2.191406 0.632812 3.140625 0.144531 3.632812 -0.921875 C 4.726562 0.117188 6.515625 0.375 7.292969 0.375 C 9.480469 0.375 11.847656 -0.488281 13.546875 -2.304688 C 14.210938 -2.046875 14.929688 -1.902344 15.792969 -1.902344 C 19.195312 -1.902344 22.019531 -4.238281 22.941406 -7.753906 C 23 -7.925781 23 -8.097656 23 -8.273438 C 23 -9.28125 22.164062 -9.800781 21.300781 -9.800781 C 20.519531 -9.800781 19.742188 -9.394531 19.484375 -8.503906 Z M 6.226562 -9.625 L 9.050781 -17.667969 C 10.03125 -20.175781 11.5 -20.839844 12.824219 -20.839844 C 13.980469 -20.839844 14.902344 -20.03125 14.902344 -18.761719 C 14.902344 -18.417969 14.8125 -18.042969 14.699219 -17.640625 L 11.558594 -8.359375 C 10.492188 -9.136719 9.25 -9.742188 7.464844 -9.742188 C 7.03125 -9.742188 6.601562 -9.714844 6.226562 -9.625 Z M 7.148438 -3.257812 C 6.082031 -3.257812 5.476562 -3.777344 5.476562 -4.4375 C 5.476562 -5.359375 6.425781 -6.109375 7.609375 -6.109375 C 8.617188 -6.109375 9.425781 -5.5625 10.175781 -4.871094 C 9.367188 -3.804688 8.15625 -3.257812 7.148438 -3.257812 Z M 7.148438 -3.257812"/></g><g id="d"><path d="M 20.261719 -8.273438 C 18.9375 -4.640625 17.378906 -3.660156 16.199219 -3.660156 C 15.679688 -3.660156 15.363281 -3.917969 15.363281 -4.292969 C 15.363281 -4.496094 15.417969 -4.699219 15.507812 -4.957031 L 16.917969 -8.53125 C 17.234375 -9.308594 17.378906 -10.03125 17.378906 -10.691406 C 17.378906 -11.902344 16.945312 -12.824219 16.253906 -13.546875 C 18.042969 -14.785156 19.222656 -17.695312 19.222656 -19.742188 C 19.222656 -22.769531 16.601562 -24.46875 13.890625 -24.613281 C 13.746094 -24.613281 13.546875 -24.644531 13.285156 -24.644531 C 12.566406 -24.644531 11.472656 -24.527344 10.460938 -23.808594 C 10.316406 -24.46875 9.480469 -25.015625 8.558594 -25.015625 C 7.667969 -25.015625 6.65625 -24.554688 6.195312 -23.257812 L -1.066406 -2.652344 C -1.152344 -2.363281 -1.210938 -2.105469 -1.210938 -1.875 C -1.210938 -0.691406 -0.144531 0 1.007812 0 C 1.988281 0 2.996094 -0.519531 3.402344 -1.644531 L 7.261719 -12.539062 C 7.320312 -11.875 7.695312 -10.664062 9.394531 -10.664062 C 9.855469 -10.664062 10.433594 -10.78125 11.152344 -11.011719 C 11.875 -10.980469 12.308594 -10.519531 12.308594 -9.855469 C 12.308594 -9.511719 12.25 -9.164062 12.105469 -8.789062 L 11.039062 -6.082031 C 10.78125 -5.390625 10.636719 -4.699219 10.636719 -4.09375 C 10.636719 -1.585938 12.652344 0 15.507812 0 C 18.648438 0 21.960938 -1.929688 23.808594 -7.636719 C 23.863281 -7.867188 23.921875 -8.097656 23.921875 -8.300781 C 23.921875 -9.308594 23.085938 -9.972656 22.222656 -9.972656 C 21.445312 -9.972656 20.636719 -9.480469 20.261719 -8.273438 Z M 7.953125 -14.527344 L 9.339844 -18.476562 C 10.03125 -19.773438 11.328125 -20.695312 12.59375 -20.695312 C 13.691406 -20.695312 14.441406 -20.003906 14.441406 -18.964844 C 14.441406 -17.8125 13.777344 -16.113281 12.738281 -15.535156 C 12.132812 -15.765625 11.527344 -15.878906 10.921875 -15.878906 C 9.742188 -15.878906 8.648438 -15.449219 7.953125 -14.527344 Z M 7.953125 -14.527344"/></g><g id="e"><path d="M 6.050781 -22.796875 L -0.75 -3.257812 C -0.894531 -2.824219 -0.949219 -2.449219 -0.949219 -2.074219 C -0.949219 -0.75 0 0 1.039062 0 C 2.046875 0 3.082031 -0.71875 3.601562 -2.191406 L 10.40625 -21.730469 C 10.546875 -22.164062 10.605469 -22.539062 10.605469 -22.914062 C 10.605469 -24.238281 9.65625 -24.988281 8.617188 -24.988281 C 7.609375 -24.988281 6.484375 -24.296875 6.050781 -22.796875 Z M 6.050781 -22.796875"/></g><g id="f"><path d="M 13.691406 -25.015625 C 12.882812 -25.015625 11.847656 -24.84375 11.125 -24.324219 C 11.066406 -25.277344 10.117188 -25.910156 9.078125 -25.910156 C 8.042969 -25.910156 6.976562 -25.335938 6.457031 -23.894531 L -0.835938 -2.996094 C -0.949219 -2.652344 -1.039062 -2.335938 -1.039062 -2.046875 C -1.039062 -0.777344 0.0273438 0 1.183594 0 C 2.132812 0 3.140625 -0.578125 3.601562 -1.929688 L 5.535156 -7.609375 C 6.542969 -6.65625 8.011719 -6.050781 9.625 -6.050781 C 12.449219 -6.050781 15.507812 -7.78125 16.804688 -11.441406 L 19.078125 -17.839844 C 19.339844 -18.5625 19.484375 -19.3125 19.484375 -19.945312 C 19.484375 -23.257812 16.859375 -25.015625 13.691406 -25.015625 Z M 14.296875 -17.695312 L 12.539062 -12.539062 C 12.046875 -11.097656 10.953125 -10.347656 9.828125 -10.347656 C 8.558594 -10.347656 7.523438 -11.296875 7.523438 -12.59375 C 7.523438 -12.824219 7.550781 -13 7.636719 -13.230469 L 9.625 -19.078125 C 10.175781 -20.664062 11.355469 -21.210938 12.507812 -21.210938 C 13.660156 -21.210938 14.527344 -20.464844 14.527344 -19.078125 C 14.527344 -18.707031 14.46875 -18.246094 14.296875 -17.695312 Z M 14.296875 -17.695312"/></g><clipPath id="a"><path d="M 10 16 L 39 16 L 39 29.03125 L 10 29.03125 Z M 10 16"/></clipPath><clipPath id="b"><path d="M 17 0 L 123 0 L 123 29.03125 L 17 29.03125 Z M 17 0"/></clipPath></defs><g clip-path="url(#a)"><path fill="#AF0101" d="M 18.640625 16.894531 L 17.882812 17.09375 L 10.449219 44.628906 L 11.203125 44.425781 L 24.183594 40.957031 L 24.9375 40.753906 L 38.070312 37.242188 L 38.824219 37.039062 Z M 18.640625 16.894531"/></g><g clip-path="url(#b)"><path fill="#FF1616" d="M 101.945312 -5.382812 L 17.882812 17.09375 L 38.070312 37.242188 L 122.132812 14.761719 Z M 101.945312 -5.382812"/></g><g><use x="35.632" y="27.728" xmlns:xlink="http://www.w3.org/1999/xlink" xlink:href="#c" xlink:type="simple" xlink:actuate="onLoad" xlink:show="embed"/></g><g><use x="54.103" y="27.728" xmlns:xlink="http://www.w3.org/1999/xlink" xlink:href="#d" xlink:type="simple" xlink:actuate="onLoad" xlink:show="embed"/></g><g><use x="73.44" y="27.728" xmlns:xlink="http://www.w3.org/1999/xlink" xlink:href="#e" xlink:type="simple" xlink:actuate="onLoad" xlink:show="embed"/></g><g><use x="80.99" y="27.728" xmlns:xlink="http://www.w3.org/1999/xlink" xlink:href="#f" xlink:type="simple" xlink:actuate="onLoad" xlink:show="embed"/></g><g><use x="97.674" y="27.728" xmlns:xlink="http://www.w3.org/1999/xlink" xlink:href="#f" xlink:type="simple" xlink:actuate="onLoad" xlink:show="embed"/></g></svg>